<svg xmlns="http://www.w3.org/2000/svg" viewBox="0 0 900 250" width="100%" height="100%">
  <defs>
    <filter id="shadow" x="-20%" y="-20%" width="140%" height="140%">
      <feDropShadow dx="2" dy="3" stdDeviation="4" flood-opacity="0.6" flood-color="#000000"/>
    </filter>
    
    <linearGradient id="lakeWater" x1="0%" y1="0%" x2="100%" y2="0%">
      <stop offset="0%" stop-color="#0ea5e9" />
      <stop offset="100%" stop-color="#38bdf8" />
    </linearGradient>
  </defs>

  <g transform="translate(40, 25)" filter="url(#shadow)">
     <circle cx="100" cy="100" r="95" fill="none" stroke="#FFFFFF" stroke-width="7" />
     <circle cx="100" cy="100" r="85" fill="none" stroke="#0ea5e9" stroke-width="2" opacity="0.8" />
     
     <circle cx="100" cy="70" r="30" fill="#facc15" opacity="0.9" />

     <path d="M 5 130 Q 50 80 100 110 T 195 120 L 195 150 L 5 150 Z" fill="#94a3b8" />
     <path d="M 5 145 Q 60 100 120 125 T 195 145 L 195 160 L 5 160 Z" fill="#64748b" />

     <path d="M 35 125 L 28 145 L 42 145 Z" fill="#1e293b" />
     <path d="M 35 115 L 30 135 L 40 135 Z" fill="#1e293b" />
     <path d="M 35 105 L 32 125 L 38 125 Z" fill="#1e293b" />
     <path d="M 55 130 L 48 150 L 62 150 Z" fill="#1e293b" />
     <path d="M 55 120 L 50 140 L 60 140 Z" fill="#1e293b" />

     <path d="M 15 160 L 185 160" stroke="url(#lakeWater)" stroke-width="5" stroke-linecap="round" />
     <path d="M 30 174 L 170 174" stroke="url(#lakeWater)" stroke-width="5" stroke-linecap="round" />
     <path d="M 55 188 L 145 188" stroke="url(#lakeWater)" stroke-width="5" stroke-linecap="round" />

     <rect x="75" y="145" width="55" height="7" rx="3.5" fill="#cbd5e1" />
     <path d="M 80 130 L 125 130 L 128 142 L 78 142 Z" fill="#ffffff" />
     <path d="M 85 130 L 90 115 L 115 115 L 120 130 Z" fill="#0ea5e9" opacity="0.9"/>
     <rect x="131" y="140" width="8" height="12" rx="2" fill="#334155" />
  </g>

  <g transform="translate(270, 115)" filter="url(#shadow)">
    <text x="0" y="0" font-family="system-ui, -apple-system, sans-serif" font-size="95" font-weight="900" fill="#FFFFFF" letter-spacing="1">SOB</text>
    <text x="200" y="0" font-family="system-ui, -apple-system, sans-serif" font-size="95" font-weight="900" fill="#facc15" letter-spacing="1">RENTALS</text>
    
    <text x="5" y="45" font-family="system-ui, -apple-system, sans-serif" font-size="28" font-weight="700" fill="#e2e8f0" letter-spacing="6">LAKE OF THE OZARKS</text>
    
    <line x1="5" y1="65" x2="570" y2="65" stroke="#facc15" stroke-width="4" stroke-linecap="round" />
  </g>
</svg>